<svg width="84" height="124" viewBox="0 0 84 124" fill="none" xmlns="http://www.w3.org/2000/svg">
<path d="M10.4393 123.061C11.0251 123.646 11.9749 123.646 12.5607 123.061L22.1066 113.515C22.6924 112.929 22.6924 111.979 22.1066 111.393C21.5208 110.808 20.5711 110.808 19.9853 111.393L11.5 119.879L3.01472 111.393C2.42893 110.808 1.47919 110.808 0.893398 111.393C0.307611 111.979 0.307611 112.929 0.893398 113.515L10.4393 123.061ZM83.5 0H31.5V3H83.5V0ZM10 21.5V122H13V21.5H10ZM31.5 0C19.6259 0 10 9.62588 10 21.5H13C13 11.2827 21.2827 3 31.5 3V0Z" fill="white"/>
</svg>
